<mxfile host="app.diagrams.net" agent="Mozilla/5.0 (Windows NT 10.0; Win64; x64) AppleWebKit/537.36 (KHTML, like Gecko) Chrome/134.0.0.0 Safari/537.36 Edg/134.0.0.0" version="26.1.1">
  <diagram name="Página-1" id="jJpd1QUO9dk7iYZSUtwT">
    <mxGraphModel grid="1" page="1" gridSize="10" guides="1" tooltips="1" connect="1" arrows="1" fold="1" pageScale="1" pageWidth="1100" pageHeight="1700" math="0" shadow="0">
      <root>
        <mxCell id="0" />
        <mxCell id="1" parent="0" />
        <mxCell id="DCHl-sYR_cFIDtcHhHEh-2" value="&lt;b&gt;INGRESO A PLANTA&lt;/b&gt;&lt;div&gt;(Pesaje y Etiquetado)&lt;/div&gt;" style="whiteSpace=wrap;html=1;aspect=fixed;" vertex="1" parent="1">
          <mxGeometry x="297.5" y="94" width="125" height="125" as="geometry" />
        </mxCell>
        <mxCell id="DCHl-sYR_cFIDtcHhHEh-3" value="&lt;i&gt;CÁMARA&lt;/i&gt;" style="rounded=1;whiteSpace=wrap;html=1;" vertex="1" parent="1">
          <mxGeometry x="605" y="118" width="180" height="60" as="geometry" />
        </mxCell>
        <mxCell id="DCHl-sYR_cFIDtcHhHEh-6" value="&lt;i&gt;CÁMARA&lt;/i&gt;" style="rounded=1;whiteSpace=wrap;html=1;" vertex="1" parent="1">
          <mxGeometry x="270" y="264" width="180" height="60" as="geometry" />
        </mxCell>
        <mxCell id="DCHl-sYR_cFIDtcHhHEh-7" value="&lt;b&gt;INGRESO A PRODUCCIÓN&lt;/b&gt;&lt;div&gt;(Escaneo de código QR de la etiqueta del producto que se ingresa a producción)&lt;/div&gt;" style="whiteSpace=wrap;html=1;aspect=fixed;" vertex="1" parent="1">
          <mxGeometry x="620" y="219" width="150" height="150" as="geometry" />
        </mxCell>
        <mxCell id="DCHl-sYR_cFIDtcHhHEh-10" value="&lt;b&gt;PESAJE EN PRODUCCIÓN&lt;/b&gt;&lt;div&gt;(Pesaje y Etiquetado)&lt;/div&gt;" style="whiteSpace=wrap;html=1;aspect=fixed;" vertex="1" parent="1">
          <mxGeometry x="625" y="449" width="150" height="150" as="geometry" />
        </mxCell>
        <mxCell id="DCHl-sYR_cFIDtcHhHEh-11" value="" style="endArrow=classic;html=1;rounded=0;entryX=0.48;entryY=0.033;entryDx=0;entryDy=0;entryPerimeter=0;" edge="1" parent="1" target="DCHl-sYR_cFIDtcHhHEh-10">
          <mxGeometry width="50" height="50" relative="1" as="geometry">
            <mxPoint x="696.5" y="369" as="sourcePoint" />
            <mxPoint x="697" y="444" as="targetPoint" />
          </mxGeometry>
        </mxCell>
        <mxCell id="DCHl-sYR_cFIDtcHhHEh-13" value="" style="endArrow=classic;html=1;rounded=0;entryX=0;entryY=0.5;entryDx=0;entryDy=0;" edge="1" parent="1">
          <mxGeometry width="50" height="50" relative="1" as="geometry">
            <mxPoint x="450" y="293.5" as="sourcePoint" />
            <mxPoint x="620" y="293.5" as="targetPoint" />
          </mxGeometry>
        </mxCell>
        <mxCell id="DCHl-sYR_cFIDtcHhHEh-14" value="&lt;i&gt;CÁMARA&lt;/i&gt;" style="rounded=1;whiteSpace=wrap;html=1;" vertex="1" parent="1">
          <mxGeometry x="275" y="494" width="180" height="60" as="geometry" />
        </mxCell>
        <mxCell id="DCHl-sYR_cFIDtcHhHEh-15" value="" style="endArrow=classic;html=1;rounded=0;" edge="1" parent="1">
          <mxGeometry width="50" height="50" relative="1" as="geometry">
            <mxPoint x="625" y="524" as="sourcePoint" />
            <mxPoint x="455" y="524" as="targetPoint" />
          </mxGeometry>
        </mxCell>
        <mxCell id="10O2uG41Zru9wE0xnk9Y-19" value="&lt;b&gt;EGRESOS&lt;/b&gt;&lt;div&gt;(Escaneo de código QR de la etiqueta de los productos que se despachan)&lt;/div&gt;" style="whiteSpace=wrap;html=1;aspect=fixed;" vertex="1" parent="1">
          <mxGeometry x="625" y="1274" width="150" height="150" as="geometry" />
        </mxCell>
        <mxCell id="10O2uG41Zru9wE0xnk9Y-20" value="&lt;i&gt;CÁMARA&lt;/i&gt;" style="rounded=1;whiteSpace=wrap;html=1;" vertex="1" parent="1">
          <mxGeometry x="285" y="1319" width="180" height="60" as="geometry" />
        </mxCell>
        <mxCell id="10O2uG41Zru9wE0xnk9Y-22" value="" style="endArrow=classic;html=1;rounded=0;entryX=0;entryY=0.5;entryDx=0;entryDy=0;" edge="1" parent="1" target="10O2uG41Zru9wE0xnk9Y-19">
          <mxGeometry width="50" height="50" relative="1" as="geometry">
            <mxPoint x="465" y="1348.5" as="sourcePoint" />
            <mxPoint x="675" y="1348.5" as="targetPoint" />
          </mxGeometry>
        </mxCell>
        <mxCell id="10O2uG41Zru9wE0xnk9Y-23" value="&lt;b&gt;DEVOLUCIONES&lt;/b&gt;&lt;div&gt;(Escaneo de código QR de la etiqueta de los productos que se reingresan)&lt;/div&gt;" style="whiteSpace=wrap;html=1;aspect=fixed;" vertex="1" parent="1">
          <mxGeometry x="625" y="1474" width="150" height="150" as="geometry" />
        </mxCell>
        <mxCell id="10O2uG41Zru9wE0xnk9Y-24" value="&lt;i&gt;CÁMARA&lt;/i&gt;" style="rounded=1;whiteSpace=wrap;html=1;" vertex="1" parent="1">
          <mxGeometry x="285" y="1519" width="180" height="60" as="geometry" />
        </mxCell>
        <mxCell id="10O2uG41Zru9wE0xnk9Y-26" value="&lt;b&gt;PREPARACIÓN DE COMBOS&lt;/b&gt;(Escaneo de código QR de la etiqueta de los productos que conforman el combo)" style="whiteSpace=wrap;html=1;aspect=fixed;" vertex="1" parent="1">
          <mxGeometry x="625" y="844" width="150" height="150" as="geometry" />
        </mxCell>
        <mxCell id="10O2uG41Zru9wE0xnk9Y-27" value="P&lt;b&gt;REPARACIÓN DE CAJAS&lt;/b&gt;(Escaneo de código QR de la etiqueta de los productos que conforman la caja)" style="whiteSpace=wrap;html=1;aspect=fixed;" vertex="1" parent="1">
          <mxGeometry x="625" y="634" width="150" height="150" as="geometry" />
        </mxCell>
        <mxCell id="10O2uG41Zru9wE0xnk9Y-28" value="&lt;i&gt;CÁMARA&lt;/i&gt;" style="rounded=1;whiteSpace=wrap;html=1;" vertex="1" parent="1">
          <mxGeometry x="275" y="679" width="190" height="60" as="geometry" />
        </mxCell>
        <mxCell id="10O2uG41Zru9wE0xnk9Y-29" value="" style="endArrow=classic;html=1;rounded=0;entryX=0;entryY=0.5;entryDx=0;entryDy=0;" edge="1" parent="1">
          <mxGeometry width="50" height="50" relative="1" as="geometry">
            <mxPoint x="465" y="694" as="sourcePoint" />
            <mxPoint x="625" y="694.5" as="targetPoint" />
          </mxGeometry>
        </mxCell>
        <mxCell id="10O2uG41Zru9wE0xnk9Y-30" value="" style="endArrow=classic;html=1;rounded=0;" edge="1" parent="1">
          <mxGeometry width="50" height="50" relative="1" as="geometry">
            <mxPoint x="625" y="724" as="sourcePoint" />
            <mxPoint x="465" y="724" as="targetPoint" />
          </mxGeometry>
        </mxCell>
        <mxCell id="10O2uG41Zru9wE0xnk9Y-31" value="&lt;i&gt;CÁMARA&lt;/i&gt;" style="rounded=1;whiteSpace=wrap;html=1;" vertex="1" parent="1">
          <mxGeometry x="285" y="889" width="180" height="60" as="geometry" />
        </mxCell>
        <mxCell id="10O2uG41Zru9wE0xnk9Y-32" value="" style="endArrow=classic;html=1;rounded=0;entryX=0;entryY=0.5;entryDx=0;entryDy=0;" edge="1" parent="1">
          <mxGeometry width="50" height="50" relative="1" as="geometry">
            <mxPoint x="465" y="904" as="sourcePoint" />
            <mxPoint x="625" y="904.5" as="targetPoint" />
          </mxGeometry>
        </mxCell>
        <mxCell id="10O2uG41Zru9wE0xnk9Y-33" value="" style="endArrow=classic;html=1;rounded=0;" edge="1" parent="1">
          <mxGeometry width="50" height="50" relative="1" as="geometry">
            <mxPoint x="625" y="934" as="sourcePoint" />
            <mxPoint x="465" y="934" as="targetPoint" />
          </mxGeometry>
        </mxCell>
        <mxCell id="10O2uG41Zru9wE0xnk9Y-34" value="&lt;b&gt;FRACCIONAMIENTO&lt;/b&gt;&lt;div&gt;(Escaneo de código QR de la etiqueta del producto padre. Pesado y etiquetado de los nuevos productos fraccionados)&lt;/div&gt;" style="whiteSpace=wrap;html=1;aspect=fixed;" vertex="1" parent="1">
          <mxGeometry x="625" y="1033" width="150" height="150" as="geometry" />
        </mxCell>
        <mxCell id="10O2uG41Zru9wE0xnk9Y-36" value="" style="endArrow=classic;html=1;rounded=0;" edge="1" parent="1">
          <mxGeometry width="50" height="50" relative="1" as="geometry">
            <mxPoint x="625" y="1548.5" as="sourcePoint" />
            <mxPoint x="465" y="1548.5" as="targetPoint" />
          </mxGeometry>
        </mxCell>
        <mxCell id="uDmsfB48aXuBOjrEodRq-1" value="&lt;i&gt;CÁMARA&lt;/i&gt;" style="rounded=1;whiteSpace=wrap;html=1;" vertex="1" parent="1">
          <mxGeometry x="285" y="1078" width="180" height="60" as="geometry" />
        </mxCell>
        <mxCell id="uDmsfB48aXuBOjrEodRq-2" value="" style="endArrow=classic;html=1;rounded=0;entryX=0;entryY=0.5;entryDx=0;entryDy=0;" edge="1" parent="1">
          <mxGeometry width="50" height="50" relative="1" as="geometry">
            <mxPoint x="465" y="1093" as="sourcePoint" />
            <mxPoint x="625" y="1093.5" as="targetPoint" />
          </mxGeometry>
        </mxCell>
        <mxCell id="uDmsfB48aXuBOjrEodRq-3" value="" style="endArrow=classic;html=1;rounded=0;" edge="1" parent="1">
          <mxGeometry width="50" height="50" relative="1" as="geometry">
            <mxPoint x="625" y="1123" as="sourcePoint" />
            <mxPoint x="465" y="1123" as="targetPoint" />
          </mxGeometry>
        </mxCell>
        <mxCell id="uDmsfB48aXuBOjrEodRq-4" value="&lt;b&gt;&lt;font style=&quot;font-size: 14px;&quot;&gt;DIAGRAMA DE FLUJO DE PROCESO EN PLANTA.&lt;/font&gt;&lt;/b&gt;&lt;div&gt;&lt;b&gt;&lt;font style=&quot;font-size: 14px;&quot;&gt;&lt;br&gt;&lt;/font&gt;&lt;/b&gt;&lt;div&gt;&lt;b&gt;&lt;font style=&quot;font-size: 14px;&quot;&gt;SISTEMA MEATWEIGHERMANAGER&lt;/font&gt;&lt;/b&gt;&lt;/div&gt;&lt;/div&gt;" style="rounded=0;whiteSpace=wrap;html=1;strokeColor=none;" vertex="1" parent="1">
          <mxGeometry x="230" width="660" height="60" as="geometry" />
        </mxCell>
        <mxCell id="eGCXDa9rWGui-A1X37gH-3" value="" style="endArrow=classic;html=1;rounded=0;entryX=0;entryY=0.5;entryDx=0;entryDy=0;" edge="1" parent="1" target="DCHl-sYR_cFIDtcHhHEh-3">
          <mxGeometry width="50" height="50" relative="1" as="geometry">
            <mxPoint x="422.5" y="147.5" as="sourcePoint" />
            <mxPoint x="592.5" y="147.5" as="targetPoint" />
          </mxGeometry>
        </mxCell>
      </root>
    </mxGraphModel>
  </diagram>
</mxfile>
